<svg width="155" height="58" viewBox="0 0 155 58" fill="none" xmlns="http://www.w3.org/2000/svg">
<path d="M20.1228 13.8106C22.4821 13.8106 24.7994 14.1448 27.0724 14.811C29.3432 15.4728 31.3152 16.4643 32.9862 17.7856C34.7147 16.6347 36.6557 15.6853 38.8114 14.935C40.9715 14.1869 43.5765 13.8106 46.6286 13.8106C48.8175 13.8106 50.9621 14.1006 53.0647 14.6782C55.1651 15.2515 57.0353 16.1567 58.6775 17.3961C60.3175 18.6355 61.6277 20.2777 62.6082 22.3183C63.5864 24.3612 64.0778 26.8511 64.0778 29.7902V56.9866C63.4979 57.1636 62.5905 57.3363 61.3511 57.5089C60.1161 57.6793 58.8368 57.7656 57.5089 57.7656C56.2451 57.7656 55.1097 57.6793 54.1005 57.5089C53.0913 57.3363 52.2414 56.9932 51.5508 56.4731C50.8603 55.9552 50.3247 55.2492 49.9485 54.3572C49.5766 53.4675 49.3907 52.3011 49.3907 50.8603V30.224C49.3907 28.4955 48.8994 27.245 47.9211 26.4704C46.9473 25.6913 45.6238 25.3018 43.955 25.3018C43.1449 25.3018 42.2818 25.4877 41.3611 25.8595C40.4404 26.2314 39.7498 26.6209 39.2895 27.0281C39.347 27.2583 39.378 27.4752 39.378 27.6744C39.378 27.8758 39.378 28.0617 39.378 28.2321V56.9866C38.745 57.1636 37.811 57.3363 36.5716 57.5089C35.3322 57.6793 34.0795 57.7656 32.818 57.7656C31.5476 57.7656 30.4099 57.6793 29.4007 57.5089C28.3959 57.3363 27.5504 56.9932 26.8599 56.4731C26.1694 55.9552 25.6338 55.2492 25.2575 54.3572C24.8857 53.4675 24.6998 52.3011 24.6998 50.8603V30.224C24.6998 28.4955 24.1642 27.245 23.0974 26.4704C22.035 25.6913 20.7536 25.3018 19.2552 25.3018C18.2216 25.3018 17.3297 25.4611 16.5816 25.7799C15.8313 26.0941 15.1961 26.3951 14.6782 26.6829V56.9866C14.105 57.1636 13.1998 57.3363 11.9604 57.5089C10.7209 57.6793 9.43948 57.7656 8.11817 57.7656C6.84777 57.7656 5.71017 57.6793 4.70093 57.5089C3.69611 57.3363 2.85066 56.9932 2.16012 56.4731C1.46959 55.9552 0.933988 55.2492 0.557737 54.3572C0.185912 53.4675 0 52.3011 0 50.8603V24.7795C0 23.228 0.329773 21.9908 0.991533 21.0701C1.65772 20.1494 2.56736 19.2862 3.71825 18.4762C5.67033 17.0951 8.10047 15.9752 11.0042 15.112C13.9124 14.2444 16.9534 13.8106 20.1228 13.8106Z" fill="white"/>
<path d="M114.074 49.4792C113.79 52.1838 112.998 54.2554 111.701 55.694C110.408 57.1326 108.523 57.8542 106.044 57.8542C104.203 57.8542 102.56 57.4071 101.122 56.5174C99.6809 55.621 98.1294 54.1094 96.4651 51.9846L87.9131 41.2725V56.9866C87.2801 57.1039 86.3461 57.2632 85.1067 57.4646C83.8673 57.6638 82.6146 57.7656 81.353 57.7656C80.0826 57.7656 78.945 57.6793 77.9358 57.5089C76.931 57.3363 76.0855 56.9932 75.395 56.4731C74.7045 55.9552 74.1689 55.2492 73.7926 54.3572C73.4208 53.4675 73.2349 52.3011 73.2349 50.8603V0.858738C73.8656 0.688319 74.7974 0.502406 76.0324 0.301001C77.2718 0.101809 78.5245 0 79.7949 0C81.0631 0 82.1985 0.0863166 83.2033 0.256736C84.2125 0.429369 85.0624 0.774635 85.753 1.29253C86.4435 1.81265 86.9747 2.51867 87.3465 3.40839C87.7227 4.30033 87.9131 5.46671 87.9131 6.90532V29.7017L102.768 14.5012C105.761 14.5012 108.162 15.1651 109.975 16.4931C111.785 17.8166 112.693 19.4832 112.693 21.495C112.693 22.3626 112.546 23.1572 112.259 23.8765C111.975 24.598 111.528 25.3328 110.922 26.0808C110.32 26.8245 109.543 27.6168 108.594 28.4534C107.642 29.2856 106.533 30.2484 105.265 31.3395L100.263 35.6598L114.074 49.4792Z" fill="#C147E9"/>
<path d="M119.434 22.8758C119.315 22.535 119.241 22.1322 119.213 21.6718C119.182 21.2114 119.168 20.7821 119.168 20.3793C119.168 19.3413 119.284 18.3608 119.514 17.4401C119.744 16.5194 120.118 15.7138 120.638 15.0232C121.156 14.3327 121.833 13.7727 122.665 13.3412C123.502 12.9051 124.553 12.686 125.817 12.686C127.025 12.686 128.221 12.9472 129.402 13.4651C130.582 13.9852 132.036 14.7355 133.767 15.7138L152.332 26.417C153.83 28.3779 154.58 30.9674 154.58 34.1899C154.58 36.6112 154.231 38.4836 153.536 39.8115C152.845 41.1351 151.838 42.1664 150.517 42.9101L126.773 56.7296C123.951 55.9815 122.037 54.959 121.028 53.6664C120.018 52.3695 119.514 50.9729 119.514 49.479C119.514 47.4605 120.018 45.8913 121.028 44.7692C122.037 43.6493 123.517 42.598 125.472 41.6175L140.672 33.9332L119.434 22.8758Z" fill="white"/>
</svg>
